<svg xmlns="http://www.w3.org/2000/svg" version="1.1" xmlns:xlink="http://www.w3.org/1999/xlink" xmlns:svgjs="http://svgjs.com/svgjs" width="146" height="146"><svg width="146" height="146" viewBox="0 0 146 146" fill="none" xmlns="http://www.w3.org/2000/svg">
<path d="M60.9074 133C52.9881 133 46.022 130.36 40.0092 125.081C35.0962 120.534 32.0532 114.961 30.8799 108.362C30.2933 105.209 30 101.726 30 97.9129C30 92.9267 30.8066 87.8304 32.4198 82.6242C36.3061 70.4519 43.3456 62.0559 53.538 57.4363C55.9578 56.4097 58.561 55.8964 61.3474 55.8964C64.1338 55.8964 66.2236 56.2631 67.6169 56.9963C67.9102 57.0697 68.2401 57.1796 68.6068 57.3263C69.0467 57.473 69.45 57.6196 69.8167 57.7663C70.1833 57.9129 70.4766 57.9863 70.6966 57.9863C70.9166 57.9863 71.0266 57.9129 71.0266 57.7663C68.8268 53 67.7269 48.2704 67.7269 43.5775C67.7269 35.6581 70.6233 27.8488 76.4161 20.1494C80.0092 15.3831 83.9322 13 88.1851 13L89.725 13.11C95.2246 14.9432 97.9743 19.8194 97.9743 27.7388C97.9743 29.7186 97.7543 31.8818 97.3144 34.2282C96.9477 36.5747 96.4345 38.7745 95.7745 40.8277C94.7479 43.9074 93.6847 46.1806 92.5848 47.6471C91.5582 49.0403 90.7883 49.7369 90.275 49.7369C89.9083 49.7369 89.725 49.517 89.725 49.077C89.725 48.4904 89.9817 47.5371 90.495 46.2172C91.6682 43.6508 92.5848 41.4143 93.2447 39.5078C94.2713 35.6214 94.7846 31.2218 94.7846 26.3089C94.7846 23.8891 94.528 21.8726 94.0147 20.2594C92.9881 17.473 91.6682 16.0797 90.055 16.0797C88.0752 16.813 86.3153 18.6462 84.7754 21.5793C80.0092 30.2319 77.626 39.3611 77.626 48.967C77.626 53.44 77.956 56.9963 78.6159 59.6361C79.0559 61.396 79.2759 62.6425 79.2759 63.3758C79.2759 64.4757 78.7626 65.0257 77.736 65.0257C76.7094 65.0257 74.0697 63.9258 69.8167 61.7259C68.6434 61.066 67.3602 60.736 65.967 60.736C63.6205 60.736 61.0174 61.6159 58.1576 63.3758C55.8845 64.8423 53.0981 67.7754 49.7983 72.1751C46.8653 75.9881 44.5921 80.9743 42.9789 87.1338C41.3657 93 40.5591 99.0862 40.5591 105.392C40.5591 112.872 42.1723 118.811 45.3987 123.211C48.6984 127.684 53.6847 129.92 60.3575 129.92C70.11 129.92 80.6691 124.531 92.0348 113.752C97.681 108.472 103.914 101.579 110.733 93.0733C113.153 90.2869 114.693 88.8937 115.353 88.8937C115.573 88.8937 115.683 89.0403 115.683 89.3336C115.683 90.3602 114.583 92.2301 112.383 94.9432C92.5848 120.314 75.4262 133 60.9074 133Z" fill="#810044"></path>
</svg><style>@media (prefers-color-scheme: light) { :root { filter: none; } }
@media (prefers-color-scheme: dark) { :root { filter: contrast(0.8333333333333334) brightness(1.7); } }
</style></svg>