<svg width="16" height="16" viewBox="0 0 16 16" fill="none" xmlns="http://www.w3.org/2000/svg">
<path d="M6.8 8C7.35228 8 7.8 7.55229 7.8 7C7.8 6.44771 7.35228 6 6.8 6C6.24772 6 5.8 6.44771 5.8 7C5.8 7.55229 6.24772 8 6.8 8Z" fill="#F95B5B"/>
<path d="M6.8 10C7.48526 10 8.15327 9.92616 8.7965 9.78598C8.79882 9.74651 8.8 9.70673 8.8 9.66667C8.8 8.91345 8.38363 8.2575 7.76851 7.91639C7.52548 8.17316 7.18144 8.33333 6.8 8.33333C6.41856 8.33333 6.07452 8.17316 5.83149 7.91639C5.21637 8.2575 4.8 8.91345 4.8 9.66667C4.8 9.70673 4.80118 9.74651 4.8035 9.78598C5.44674 9.92616 6.11474 10 6.8 10Z" fill="#F95B5B"/>
<path d="M11.0667 6.06667H9.06667V6.6H11.0667V6.06667Z" fill="#F95B5B"/>
<path d="M9.06667 7.26667H11.0667V7.8H9.06667V7.26667Z" fill="#F95B5B"/>
<path fill-rule="evenodd" clip-rule="evenodd" d="M8 14.6667C11.6819 14.6667 14.6667 11.6819 14.6667 8C14.6667 4.3181 11.6819 1.33333 8 1.33333C4.3181 1.33333 1.33333 4.3181 1.33333 8C1.33333 11.6819 4.3181 14.6667 8 14.6667ZM4.13333 5.33333H11.8V10.6667H4.13333V5.33333Z" fill="#F95B5B"/>
</svg>
