<svg width="710" height="385" viewBox="0 0 710 385" fill="none" xmlns="http://www.w3.org/2000/svg">
<path fill-rule="evenodd" clip-rule="evenodd" d="M98.912 384.032C73.568 384.032 51.2747 375.584 32.032 358.688C16.3093 344.139 6.57067 326.304 2.816 305.184C0.938667 295.093 0 283.947 0 271.744C0 255.787 2.58133 239.477 7.744 222.816C20.1813 183.861 42.7093 156.992 75.328 142.208C83.072 138.923 91.4027 137.28 100.32 137.28C109.237 137.28 115.925 138.453 120.384 140.8C121.323 141.035 122.379 141.387 123.552 141.856C124.96 142.325 126.251 142.795 127.424 143.264C128.597 143.733 129.536 143.968 130.24 143.968C130.944 143.968 131.296 143.733 131.296 143.264C124.256 128.011 120.736 112.875 120.736 97.856C120.736 72.512 130.005 47.52 148.544 22.88C160.043 7.62667 172.597 0 186.208 0L191.136 0.352005C208.736 6.21868 217.536 21.824 217.536 47.168C217.536 53.504 216.832 60.4267 215.424 67.936C214.251 75.4453 212.608 82.4854 210.496 89.056C207.211 98.912 203.808 106.187 200.288 110.88C197.003 115.339 194.539 117.568 192.896 117.568C191.723 117.568 191.136 116.864 191.136 115.456C191.136 113.579 191.957 110.528 193.6 106.304C197.355 98.0907 200.288 90.9333 202.4 84.832C205.685 72.3947 207.328 58.3147 207.328 42.592C207.328 34.848 206.507 28.3947 204.864 23.232C201.579 14.3147 197.355 9.856 192.192 9.856C185.856 12.2027 180.224 18.0693 175.296 27.456C160.043 55.1467 152.416 84.3627 152.416 115.104C152.416 129.419 153.472 140.8 155.584 149.248C156.992 154.88 157.696 158.869 157.696 161.216C157.696 164.736 156.053 166.496 152.768 166.496C149.483 166.496 141.035 162.976 127.424 155.936C123.669 153.824 119.563 152.768 115.104 152.768C107.595 152.768 99.264 155.584 90.112 161.216C82.8373 165.909 73.92 175.296 63.36 189.376C53.9733 201.579 46.6987 217.536 41.536 237.248C36.3733 256.021 33.792 275.499 33.792 295.68C33.792 319.616 38.9547 338.624 49.28 352.704C59.84 367.019 75.7973 374.176 97.152 374.176C128.363 374.176 162.155 356.928 198.528 322.432C216.597 305.536 236.544 283.477 258.368 256.256C260.071 254.295 261.637 252.55 263.068 251.021C263.554 230.652 267.645 214.094 275.338 201.344C279.797 193.6 285.664 189.728 292.938 189.728C304.906 189.728 310.89 195.243 310.89 206.272C310.89 213.547 308.192 222.816 302.794 234.08L295.05 249.568C288.01 262.944 284.49 273.504 284.49 281.248C284.49 284.299 284.96 287.115 285.898 289.696C287.541 293.685 289.888 295.68 292.938 295.68C297.397 295.68 303.616 292.043 311.594 284.768C323.797 273.504 337.056 257.547 351.37 236.896C353.248 233.611 354.773 231.029 355.946 229.152C357.12 227.275 357.824 225.984 358.058 225.28C358.293 224.576 358.41 223.989 358.41 223.52V222.464C356.768 218.709 355.946 214.72 355.946 210.496C355.946 198.528 360.405 192.544 369.322 192.544C375.189 192.544 378.24 195.008 378.474 199.936C378.474 204.864 377.066 209.675 374.25 214.368C372.373 217.653 371.434 220.469 371.434 222.816C371.434 224.459 372.021 226.336 373.194 228.448C380.469 239.477 394.549 248.395 415.434 255.2C429.28 259.659 440.896 261.888 450.282 261.888C466.852 261.888 482.214 256.838 496.369 246.739C498.519 236.907 503.086 227.525 510.07 218.592C520.161 205.451 530.369 198.88 540.694 198.88C544.449 198.88 548.086 199.584 551.606 200.992C555.126 202.165 557.473 204.043 558.646 206.624C560.054 208.971 560.758 211.435 560.758 214.016C560.758 222.699 554.657 234.08 542.454 248.16L528.726 262.592C526.379 265.408 525.206 270.571 525.206 278.08C525.206 283.947 530.251 289.696 540.342 295.328C546.913 299.083 554.539 300.96 563.222 300.96C567.211 300.96 573.782 300.139 582.934 298.496C592.321 296.619 598.305 295.211 600.886 294.272C620.598 286.997 645.121 271.979 674.454 249.216C681.025 243.819 685.249 241.12 687.126 241.12C689.003 241.12 689.942 242.059 689.942 243.936C689.942 244.875 689.238 246.048 687.83 247.456C678.946 255.23 669.478 262.712 659.425 269.901C663.016 269.015 666.806 268.271 670.626 267.822C677.509 267.012 686.202 265.934 693.181 265.058C696.669 264.62 699.726 264.233 701.911 263.955C703.004 263.816 703.878 263.704 704.48 263.628L705.408 263.509C707.161 263.284 708.765 264.523 708.989 266.276C709.214 268.029 707.975 269.632 706.222 269.857L706.198 269.677C706.221 269.857 706.221 269.857 706.221 269.857L705.29 269.976C704.688 270.053 703.812 270.165 702.718 270.304C700.531 270.582 697.47 270.97 693.978 271.408C686.996 272.285 678.282 273.365 671.374 274.178C663.214 275.138 655.051 277.579 648.872 279.813C645.796 280.926 643.241 281.977 641.46 282.747C640.571 283.132 639.876 283.446 639.408 283.662C639.173 283.77 638.996 283.853 638.88 283.908C638.821 283.936 638.778 283.957 638.751 283.97L638.722 283.984L638.716 283.987C638.373 284.153 638.016 284.253 637.658 284.291C628.806 289.517 619.599 294.134 610.038 298.144C595.723 304.245 580.939 307.531 565.686 308C537.761 308 517.462 300.608 504.79 285.824C498.219 278.549 494.934 269.984 494.934 260.128C494.934 258.939 494.967 257.756 495.032 256.579L494.986 256.608C480.906 264.821 466.357 268.928 451.338 268.928C428.81 268.928 404.874 260.597 379.53 243.936C377.418 242.763 375.306 241.355 373.194 239.712C370.378 237.131 367.797 235.253 365.45 234.08L349.258 259.424C342.922 268.811 332.949 279.605 319.338 291.808C309.952 299.787 301.269 303.776 293.29 303.776C291.413 303.776 289.536 303.541 287.658 303.072C272.839 298.415 264.705 284.972 263.254 262.744C200.06 343.603 145.28 384.032 98.912 384.032ZM542.806 231.968C538.582 239.947 534.358 245.461 530.134 248.512C529.899 248.043 529.782 247.456 529.782 246.752C529.782 240.416 533.302 232.085 540.342 221.76C543.862 216.597 547.265 213.312 550.55 211.904C549.846 217.301 547.265 223.989 542.806 231.968Z" fill="#810044"/>
</svg>
