<svg width="96" height="66" viewBox="0 0 96 66" fill="none" xmlns="http://www.w3.org/2000/svg">
<path fill-rule="evenodd" clip-rule="evenodd" d="M4.3371 48.566C6.94254 50.8537 9.96103 51.9975 13.3926 51.9975C19.6707 51.9975 27.088 46.5235 35.6444 35.5753C35.8407 38.5849 36.9422 40.405 38.9486 41.0356C39.2028 41.0992 39.457 41.131 39.7112 41.131C40.7915 41.131 41.9671 40.5908 43.2381 39.5105C45.0809 37.8583 46.4313 36.3967 47.2892 35.1257L49.4816 31.6942C49.7993 31.8531 50.1488 32.1073 50.5301 32.4568C50.8161 32.6792 51.1021 32.8698 51.388 33.0287C54.8196 35.2846 58.0605 36.4126 61.1107 36.4126C63.1443 36.4126 65.1142 35.8565 67.0206 34.7445L67.0268 34.7405C67.018 34.8999 67.0136 35.0601 67.0136 35.2211C67.0136 36.5556 67.4584 37.7153 68.3481 38.7003C70.0638 40.702 72.8122 41.7029 76.5933 41.7029C78.6586 41.6393 80.6603 41.1945 82.5985 40.3684C83.8931 39.8255 85.1397 39.2003 86.3382 38.4927C86.3867 38.4875 86.4351 38.474 86.4815 38.4515L86.4823 38.4511L86.4862 38.4492C86.49 38.4474 86.4958 38.4447 86.5037 38.4409C86.5115 38.4372 86.5215 38.4325 86.5334 38.4269C86.5453 38.4214 86.5593 38.4149 86.5751 38.4076C86.6385 38.3783 86.7326 38.3358 86.8531 38.2837C87.0942 38.1794 87.4402 38.0371 87.8567 37.8864C88.6933 37.5839 89.7986 37.2534 90.9034 37.1234C91.8388 37.0134 93.0186 36.8671 93.9639 36.7484C94.4367 36.689 94.8511 36.6365 95.1473 36.5989C95.2955 36.58 95.414 36.5649 95.4956 36.5545L95.6216 36.5384C95.6216 36.5384 95.6217 36.5384 95.6185 36.514L95.6218 36.5384C95.8591 36.5079 96.0269 36.2909 95.9964 36.0535C95.966 35.8162 95.7489 35.6484 95.5116 35.6788L95.3858 35.6949C95.3044 35.7053 95.186 35.7204 95.0381 35.7392C94.7422 35.7768 94.3282 35.8293 93.856 35.8886C92.9111 36.0072 91.734 36.1532 90.8021 36.2628C90.2848 36.3237 89.7716 36.4243 89.2855 36.5444C90.6466 35.5709 91.9286 34.5578 93.1315 33.5053C93.3221 33.3147 93.4175 33.1558 93.4175 33.0287C93.4175 32.7745 93.2904 32.6474 93.0362 32.6474C92.782 32.6474 92.2101 33.0128 91.3204 33.7436C87.3487 36.8256 84.0284 38.8592 81.3594 39.8441C81.0099 39.9712 80.1996 40.1619 78.9287 40.4161C77.6895 40.6385 76.7998 40.7497 76.2597 40.7497C75.0841 40.7497 74.0514 40.4955 73.1618 39.9871C71.7955 39.2246 71.1124 38.4461 71.1124 37.6518C71.1124 36.635 71.2712 35.936 71.589 35.5547L73.4477 33.6006C75.1 31.6942 75.9261 30.1532 75.9261 28.9776C75.9261 28.628 75.8308 28.2944 75.6401 27.9767C75.4812 27.6272 75.1635 27.373 74.6869 27.2141C74.2103 27.0235 73.7178 26.9282 73.2094 26.9282C71.8114 26.9282 70.4292 27.8178 69.063 29.5971C68.1174 30.8066 67.499 32.077 67.2079 33.4082C65.2913 34.7757 63.2113 35.4594 60.9678 35.4594C59.6968 35.4594 58.124 35.1575 56.2494 34.5538C53.4215 33.6324 51.5151 32.425 50.5301 30.9316C50.3713 30.6457 50.2918 30.3915 50.2918 30.1691C50.2918 29.8513 50.4189 29.47 50.6731 29.0252C51.0544 28.3897 51.245 27.7384 51.245 27.0711C51.2133 26.4039 50.8002 26.0703 50.0059 26.0703C48.7985 26.0703 48.1948 26.8805 48.1948 28.5009C48.1948 29.0729 48.306 29.613 48.5284 30.1214V30.2644C48.5284 30.3279 48.5125 30.4074 48.4807 30.5027C48.449 30.598 48.3536 30.7728 48.1948 31.027C48.0359 31.2811 47.8294 31.6306 47.5752 32.0755C45.637 34.8716 43.8418 37.0322 42.1895 38.5573C41.1092 39.5423 40.2672 40.0348 39.6635 40.0348C39.2505 40.0348 38.9328 39.7647 38.7103 39.2245C38.5832 38.875 38.5197 38.4938 38.5197 38.0807C38.5197 37.0322 38.9963 35.6024 39.9495 33.7913L40.998 31.6942C41.7288 30.1691 42.0942 28.914 42.0942 27.929C42.0942 26.4357 41.284 25.689 39.6635 25.689C38.6786 25.689 37.8842 26.2132 37.2805 27.2618C36.2388 28.9881 35.685 31.2301 35.6191 33.988C35.4254 34.1951 35.2133 34.4313 34.9828 34.6968C32.0278 38.3825 29.3271 41.3693 26.8805 43.657C21.9556 48.3277 17.3802 50.6631 13.1543 50.6631C10.2629 50.6631 8.10228 49.694 6.67246 47.7558C5.27442 45.8494 4.5754 43.2757 4.5754 40.0348C4.5754 37.3022 4.92491 34.665 5.62393 32.1231C6.32295 29.4542 7.30794 27.2936 8.57888 25.6413C10.0087 23.7349 11.2161 22.464 12.2011 21.8285C13.4402 21.0659 14.5682 20.6846 15.585 20.6846C16.1887 20.6846 16.7447 20.8276 17.2531 21.1136C19.096 22.0668 20.2398 22.5434 20.6846 22.5434C21.1295 22.5434 21.3519 22.3051 21.3519 21.8285C21.3519 21.5107 21.2566 20.9706 21.0659 20.208C20.78 19.0642 20.637 17.5232 20.637 15.585C20.637 11.4226 21.6696 7.4668 23.7349 3.71752C24.4021 2.44657 25.1647 1.65223 26.0226 1.33449C26.7216 1.33449 27.2936 1.93819 27.7384 3.14559C27.9608 3.84461 28.072 4.71839 28.072 5.76691C28.072 7.89575 27.8496 9.80217 27.4048 11.4862C27.1188 12.3123 26.7216 13.2814 26.2132 14.3935C25.9908 14.9654 25.8796 15.3784 25.8796 15.6326C25.8796 15.8233 25.9591 15.9186 26.1179 15.9186C26.3403 15.9186 26.674 15.6167 27.1188 15.013C27.5954 14.3776 28.0561 13.3926 28.5009 12.0581C28.7869 11.1684 29.0093 10.2152 29.1682 9.19847C29.3588 8.18171 29.4542 7.24439 29.4542 6.3865C29.4542 2.95495 28.2626 0.842003 25.8796 0.0476611L25.2124 0C23.3695 0 21.6696 1.03264 20.1127 3.09793C17.6026 6.43416 16.3475 9.81805 16.3475 13.2496C16.3475 15.2831 16.8241 17.3325 17.7773 19.3978C17.7773 19.4613 17.7297 19.4931 17.6344 19.4931C17.539 19.4931 17.412 19.4613 17.2531 19.3978C17.0942 19.3343 16.9195 19.2707 16.7288 19.2072C16.5699 19.1436 16.427 19.096 16.2999 19.0642C15.6962 18.7464 14.7906 18.5876 13.5832 18.5876C12.3758 18.5876 11.2479 18.81 10.1993 19.2548C5.7828 21.2566 2.73253 24.8946 1.04853 30.1691C0.34951 32.425 0 34.6333 0 36.7939C0 38.4461 0.127095 39.9553 0.381284 41.3216C0.889662 44.1812 2.20827 46.596 4.3371 48.566ZM71.7796 33.6483C72.3515 33.2352 72.9235 32.4885 73.4954 31.4082C74.0991 30.3279 74.4486 29.4224 74.5439 28.6916C74.0991 28.8822 73.6384 29.3271 73.1618 30.0261C72.2086 31.4241 71.732 32.5521 71.732 33.41C71.732 33.5053 71.7478 33.5847 71.7796 33.6483Z" fill="#810044"/>
<path d="M45.5978 65.2244H46.0485V56.1083H45.5978V65.2244Z" fill="#810044"/>
<path d="M34.8309 57.6074L33.739 62.954H34.5882L34.9522 61.1949L34.9608 61.1603C35.0128 60.9234 35.1024 60.6952 35.2295 60.4757C35.3623 60.2504 35.5125 60.054 35.6801 59.8864C35.8534 59.7131 36.0267 59.5774 36.2 59.4792C36.3733 59.3752 36.5264 59.3232 36.6593 59.3232C36.7575 59.3232 36.8268 59.3492 36.8672 59.4012C36.9077 59.4532 36.9279 59.5196 36.9279 59.6005C36.9279 59.7102 36.8846 59.8373 36.7979 59.9818C36.717 60.1262 36.5524 60.2822 36.304 60.4497C36.0614 60.6115 35.6974 60.7761 35.2121 60.9436C35.4028 61.504 35.5588 61.9373 35.6801 62.2435C35.8014 62.5497 35.9198 62.7634 36.0354 62.8847C36.1509 63.0003 36.2895 63.058 36.4513 63.058C36.6535 63.058 36.8701 62.98 37.1012 62.8241C37.3381 62.6623 37.5634 62.437 37.7771 62.1482C37.7194 62.0846 37.6529 62.0268 37.5778 61.9748C37.4565 62.1193 37.3323 62.2377 37.2052 62.3301C37.0781 62.4168 36.9626 62.4601 36.8586 62.4601C36.8239 62.4601 36.7864 62.4486 36.7459 62.4255C36.7113 62.3966 36.6651 62.333 36.6073 62.2348C36.5553 62.1366 36.486 61.9835 36.3993 61.7755C36.3127 61.5676 36.2058 61.2816 36.0787 60.9176C36.6737 60.6808 37.1041 60.4439 37.3699 60.2071C37.6356 59.9702 37.7685 59.716 37.7685 59.4445C37.7685 59.277 37.7136 59.1268 37.6038 58.9939C37.4941 58.861 37.3034 58.7946 37.0319 58.7946C36.7084 58.7946 36.3935 58.9015 36.0874 59.1152C35.7812 59.3232 35.4865 59.6294 35.2035 60.0338H35.1601L35.3248 59.3579L35.5934 58.058C35.6454 57.7981 35.7003 57.5352 35.7581 57.2695C35.8216 57.0037 35.888 56.7466 35.9574 56.4982L35.8447 56.4376C35.631 56.5242 35.3739 56.5907 35.0735 56.6369C34.7789 56.6773 34.4756 56.7091 34.1636 56.7322C34.1578 56.7553 34.1549 56.7842 34.1549 56.8188V56.8968L34.1723 56.9662C34.4496 56.9719 34.6373 56.9893 34.7355 57.0182C34.8395 57.0413 34.8915 57.1077 34.8915 57.2175C34.8915 57.2579 34.8857 57.3128 34.8742 57.3821C34.8626 57.4514 34.8482 57.5265 34.8309 57.6074Z" fill="#810044"/>
<path fill-rule="evenodd" clip-rule="evenodd" d="M27.8038 59.5052C27.8038 59.7305 27.7316 59.9327 27.5872 60.1118C27.4428 60.2851 27.2464 60.4353 26.998 60.5624C26.7553 60.6895 26.4838 60.7934 26.1834 60.8743C25.883 60.9552 25.5768 61.013 25.2648 61.0476C25.2302 61.2267 25.2129 61.3943 25.2129 61.5502C25.2129 61.8391 25.2764 62.0702 25.4035 62.2435C25.5306 62.411 25.7357 62.4948 26.0187 62.4948C26.2672 62.4948 26.5011 62.4283 26.7207 62.2955C26.9402 62.1626 27.1337 61.9893 27.3012 61.7755C27.3937 61.8275 27.4601 61.8824 27.5005 61.9402C27.3041 62.2752 27.0644 62.5468 26.7813 62.7547C26.4982 62.9569 26.1603 63.058 25.7674 63.058C25.3111 63.058 24.95 62.9223 24.6843 62.6508C24.4243 62.3735 24.2943 62.0037 24.2943 61.5416C24.2943 61.2181 24.3579 60.8945 24.4849 60.571C24.612 60.2475 24.7882 59.9529 25.0135 59.6871C25.2446 59.4156 25.5161 59.199 25.8281 59.0372C26.1458 58.8755 26.4896 58.7946 26.8593 58.7946C27.1828 58.7946 27.4197 58.8581 27.5699 58.9852C27.7259 59.1123 27.8038 59.2856 27.8038 59.5052ZM25.3342 60.7443C25.6057 60.7097 25.8657 60.6461 26.1141 60.5537C26.3683 60.4555 26.5762 60.3284 26.738 60.1724C26.8997 60.0107 26.9806 59.8142 26.9806 59.5832C26.9806 59.4561 26.9517 59.355 26.894 59.2799C26.8362 59.199 26.7438 59.1585 26.6167 59.1585C26.4376 59.1585 26.2643 59.2365 26.0967 59.3925C25.9292 59.5427 25.779 59.7391 25.6461 59.9818C25.5133 60.2244 25.4093 60.4786 25.3342 60.7443Z" fill="#810044"/>
<path d="M28.1678 56.5675L28.1765 56.6022L26.6253 58.2487C26.6138 58.2487 26.5762 58.24 26.5127 58.2227C26.4549 58.1996 26.4174 58.1764 26.4 58.1533L27.2752 56.5242C27.3099 56.5127 27.3561 56.504 27.4139 56.4982C27.4774 56.4924 27.541 56.4896 27.6045 56.4896C27.7085 56.4896 27.8125 56.4982 27.9165 56.5156C28.0263 56.5271 28.11 56.5444 28.1678 56.5675Z" fill="#810044"/>
<path d="M23.0905 59.3752H24.0871C24.1102 59.3116 24.1275 59.251 24.1391 59.1932C24.1506 59.1297 24.1564 59.0632 24.1564 58.9939H23.1772C23.2407 58.7166 23.2927 58.4913 23.3332 58.318C23.3736 58.1389 23.4141 57.9627 23.4545 57.7894L23.4285 57.7547C23.2898 57.7778 23.1454 57.7981 22.9952 57.8154C22.8508 57.8269 22.7093 57.8385 22.5706 57.8501C22.5302 58.0407 22.484 58.2429 22.432 58.4566C22.3857 58.6646 22.3424 58.8524 22.302 59.0199L21.6174 59.1239C21.6001 59.1643 21.5885 59.2048 21.5827 59.2452C21.577 59.2856 21.5741 59.329 21.5741 59.3752H22.224L21.6867 61.8102C21.6578 61.9431 21.6376 62.0557 21.6261 62.1482C21.6145 62.2406 21.6087 62.3186 21.6087 62.3821C21.6087 62.4746 21.629 62.5757 21.6694 62.6854C21.7098 62.7894 21.782 62.8789 21.886 62.954C21.9958 63.0291 22.1431 63.0667 22.328 63.0667C22.6053 63.0667 22.8739 62.9858 23.1339 62.8241C23.3938 62.6623 23.6249 62.4399 23.8271 62.1568C23.7693 62.0933 23.7029 62.0355 23.6278 61.9835C23.4949 62.151 23.3447 62.2868 23.1772 62.3908C23.0097 62.489 22.8652 62.5381 22.7439 62.5381C22.6399 62.5381 22.5677 62.5121 22.5273 62.4601C22.4868 62.4023 22.4666 62.3272 22.4666 62.2348C22.4666 62.1366 22.4926 61.9748 22.5446 61.7495L23.0905 59.3752Z" fill="#810044"/>
<path fill-rule="evenodd" clip-rule="evenodd" d="M13.3359 60.1118C13.4803 59.9327 13.5525 59.7305 13.5525 59.5052C13.5525 59.2856 13.4745 59.1123 13.3185 58.9852C13.1683 58.8581 12.9315 58.7946 12.6079 58.7946C12.2382 58.7946 11.8945 58.8755 11.5767 59.0372C11.2648 59.199 10.9933 59.4156 10.7622 59.6871C10.5369 59.9529 10.3607 60.2475 10.2336 60.571C10.1065 60.8945 10.0429 61.2181 10.0429 61.5416C10.0429 62.0037 10.1729 62.3735 10.4329 62.6508C10.6986 62.9223 11.0597 63.058 11.5161 63.058C11.9089 63.058 12.2469 62.9569 12.53 62.7547C12.813 62.5468 13.0528 62.2752 13.2492 61.9402C13.2088 61.8824 13.1423 61.8275 13.0499 61.7755C12.8824 61.9893 12.6888 62.1626 12.4693 62.2955C12.2498 62.4283 12.0158 62.4948 11.7674 62.4948C11.4843 62.4948 11.2792 62.411 11.1521 62.2435C11.025 62.0702 10.9615 61.8391 10.9615 61.5502C10.9615 61.3943 10.9788 61.2267 11.0135 61.0476C11.3254 61.013 11.6316 60.9552 11.932 60.8743C12.2324 60.7934 12.504 60.6895 12.7466 60.5624C12.995 60.4353 13.1914 60.2851 13.3359 60.1118ZM11.8627 60.5537C11.6143 60.6461 11.3543 60.7097 11.0828 60.7443C11.1579 60.4786 11.2619 60.2244 11.3948 59.9818C11.5276 59.7391 11.6778 59.5427 11.8454 59.3925C12.0129 59.2365 12.1862 59.1585 12.3653 59.1585C12.4924 59.1585 12.5848 59.199 12.6426 59.2799C12.7004 59.355 12.7293 59.4561 12.7293 59.5832C12.7293 59.8142 12.6484 60.0107 12.4866 60.1724C12.3249 60.3284 12.1169 60.4555 11.8627 60.5537Z" fill="#810044"/>
<path d="M13.9969 62.8154C14.2396 62.9772 14.5891 63.058 15.0455 63.058C15.369 63.058 15.6578 63.0118 15.912 62.9194C16.1662 62.827 16.3655 62.6941 16.5099 62.5208C16.6544 62.3475 16.7266 62.1395 16.7266 61.8969C16.7266 61.6947 16.6804 61.5213 16.5879 61.3769C16.4955 61.2267 16.3771 61.0938 16.2326 60.9783C16.0882 60.857 15.938 60.7443 15.782 60.6403C15.5105 60.4555 15.3025 60.2995 15.1581 60.1724C15.0195 60.0395 14.9501 59.8836 14.9501 59.7045C14.9501 59.5369 15.0108 59.4012 15.1321 59.2972C15.2534 59.1874 15.4296 59.1325 15.6607 59.1325C15.782 59.1325 15.9034 59.147 16.0247 59.1759C16.0478 59.3492 16.1084 59.5138 16.2067 59.6698C16.3106 59.82 16.458 59.8951 16.6486 59.8951C16.7988 59.8951 16.9028 59.8489 16.9606 59.7565C17.0241 59.664 17.0559 59.5745 17.0559 59.4878C17.0559 59.3203 16.9519 59.1643 16.7439 59.0199C16.5359 58.8755 16.224 58.8033 15.808 58.8033C15.4325 58.8033 15.1235 58.8668 14.8808 58.9939C14.6382 59.1152 14.4591 59.2712 14.3436 59.4618C14.2338 59.6467 14.1789 59.8316 14.1789 60.0164C14.1789 60.1955 14.2251 60.3573 14.3176 60.5017C14.41 60.6461 14.5284 60.779 14.6729 60.9003C14.8231 61.0159 14.9761 61.1285 15.1321 61.2383C15.3979 61.4174 15.5972 61.5705 15.73 61.6975C15.8687 61.8189 15.938 61.9691 15.938 62.1482C15.938 62.3504 15.8571 62.5034 15.6954 62.6074C15.5336 62.7056 15.3343 62.7547 15.0975 62.7547C15.0397 62.7547 14.979 62.7519 14.9155 62.7461C14.8577 62.7403 14.7971 62.7287 14.7335 62.7114C14.7162 62.5843 14.6815 62.4572 14.6295 62.3301C14.5833 62.203 14.514 62.099 14.4216 62.0182C14.3349 61.9373 14.2194 61.8969 14.0749 61.8969C13.9305 61.8969 13.8207 61.9402 13.7456 62.0268C13.6705 62.1135 13.633 62.2059 13.633 62.3041C13.633 62.4832 13.7543 62.6536 13.9969 62.8154Z" fill="#810044"/>
<path d="M16.9794 62.8501L19.9257 59.8518C19.5733 59.7189 19.2787 59.6265 19.0418 59.5745C18.805 59.5225 18.6114 59.4965 18.4612 59.4965C18.1955 59.4965 18.0395 59.5687 17.9933 59.7131C18.1204 59.7247 18.2331 59.768 18.3313 59.8431C18.4353 59.9124 18.4872 60.0135 18.4872 60.1464C18.4872 60.2446 18.4555 60.3342 18.3919 60.415C18.3284 60.4901 18.2302 60.5277 18.0973 60.5277C17.9413 60.5277 17.8142 60.4728 17.716 60.3631C17.6178 60.2475 17.5687 60.1146 17.5687 59.9644C17.5687 59.7969 17.6265 59.6265 17.742 59.4532C17.8633 59.2741 18.0309 59.1239 18.2446 59.0026C18.4584 58.8812 18.7039 58.8206 18.9812 58.8206C19.1314 58.8206 19.3307 58.8495 19.5791 58.9072C19.8333 58.9592 20.1539 59.0632 20.541 59.2192L20.9569 58.7946C21.0089 58.8119 21.0667 58.8553 21.1302 58.9246C21.1996 58.9881 21.2458 59.0343 21.2689 59.0632L18.4353 61.9402C18.7414 62.0615 18.9927 62.1539 19.1892 62.2175C19.3856 62.2752 19.5647 62.3041 19.7264 62.3041C19.8766 62.3041 20.0268 62.2608 20.177 62.1741C20.333 62.0875 20.5063 61.9113 20.697 61.6456C20.7894 61.6918 20.8587 61.7467 20.9049 61.8102C20.645 62.2666 20.3966 62.5901 20.1597 62.7807C19.9228 62.9656 19.6802 63.058 19.4318 63.058C19.2354 63.058 19.0014 63.0089 18.7299 62.9107C18.4641 62.8125 18.1608 62.6999 17.82 62.5728L17.3521 63.0494C17.3116 63.0494 17.2452 63.0205 17.1528 62.9627C17.0603 62.9049 17.0025 62.8674 16.9794 62.8501Z" fill="#810044"/>
<path d="M29.8774 59.3752H30.874C30.8971 59.3116 30.9144 59.251 30.9259 59.1932C30.9375 59.1297 30.9433 59.0632 30.9433 58.9939H29.9641C30.0276 58.7166 30.0796 58.4913 30.12 58.318C30.1605 58.1389 30.2009 57.9627 30.2414 57.7894L30.2154 57.7547C30.0767 57.7778 29.9323 57.7981 29.7821 57.8154C29.6377 57.8269 29.4961 57.8385 29.3575 57.8501C29.317 58.0407 29.2708 58.2429 29.2188 58.4566C29.1726 58.6646 29.1293 58.8524 29.0888 59.0199L28.4043 59.1239C28.3869 59.1643 28.3754 59.2048 28.3696 59.2452C28.3638 59.2856 28.3609 59.329 28.3609 59.3752H29.0109L28.4736 61.8102C28.4447 61.9431 28.4245 62.0557 28.4129 62.1482C28.4014 62.2406 28.3956 62.3186 28.3956 62.3821C28.3956 62.4746 28.4158 62.5757 28.4563 62.6854C28.4967 62.7894 28.5689 62.8789 28.6729 62.954C28.7827 63.0291 28.93 63.0667 29.1148 63.0667C29.3921 63.0667 29.6608 62.9858 29.9207 62.8241C30.1807 62.6623 30.4118 62.4399 30.614 62.1568C30.5562 62.0933 30.4898 62.0355 30.4147 61.9835C30.2818 62.151 30.1316 62.2868 29.9641 62.3908C29.7965 62.489 29.6521 62.5381 29.5308 62.5381C29.4268 62.5381 29.3546 62.5121 29.3142 62.4601C29.2737 62.4023 29.2535 62.3272 29.2535 62.2348C29.2535 62.1366 29.2795 61.9748 29.3315 61.7495L29.8774 59.3752Z" fill="#810044"/>
<path d="M33.1089 61.9748C33.184 62.0268 33.2504 62.0846 33.3082 62.1482C33.1118 62.4081 32.8981 62.6248 32.667 62.7981C32.4417 62.9714 32.1904 63.058 31.9131 63.058C31.6993 63.058 31.5433 63.006 31.4451 62.9021C31.3469 62.7923 31.2978 62.6479 31.2978 62.4688C31.2978 62.4052 31.3036 62.3388 31.3151 62.2695C31.3267 62.1944 31.3411 62.1193 31.3585 62.0442L31.8784 59.8778C31.9188 59.7102 31.9391 59.6005 31.9391 59.5485C31.9391 59.4098 31.8871 59.3405 31.7831 59.3405C31.7022 59.3405 31.5953 59.3867 31.4625 59.4792C31.3354 59.5658 31.2083 59.6756 31.0812 59.8085C31.0407 59.7796 31.0032 59.7507 30.9685 59.7218C30.9396 59.6929 30.9108 59.6611 30.8819 59.6265C31.113 59.355 31.3498 59.1528 31.5924 59.0199C31.8409 58.8812 32.0719 58.8119 32.2857 58.8119C32.4821 58.8119 32.6208 58.8639 32.7016 58.9679C32.7883 59.0661 32.8316 59.1903 32.8316 59.3405C32.8316 59.3925 32.8258 59.4503 32.8143 59.5138C32.8085 59.5716 32.7998 59.6323 32.7883 59.6958L32.2337 62.0008C32.2279 62.0413 32.2164 62.0933 32.199 62.1568C32.1817 62.2146 32.173 62.2724 32.173 62.3301C32.173 62.3821 32.1846 62.4255 32.2077 62.4601C32.2308 62.4948 32.2712 62.5121 32.329 62.5121C32.4272 62.5121 32.5514 62.4601 32.7016 62.3561C32.8518 62.2521 32.9876 62.125 33.1089 61.9748Z" fill="#810044"/>
<path d="M32.7103 57.8067C32.5543 57.8067 32.4272 57.7547 32.329 57.6507C32.2308 57.5468 32.1817 57.4197 32.1817 57.2695C32.1817 57.0961 32.2424 56.9488 32.3637 56.8275C32.4908 56.7004 32.641 56.6369 32.8143 56.6369C32.9703 56.6369 33.0945 56.6889 33.1869 56.7929C33.2793 56.8911 33.3255 57.0153 33.3255 57.1655C33.3255 57.3388 33.2678 57.489 33.1522 57.6161C33.0367 57.7432 32.8894 57.8067 32.7103 57.8067Z" fill="#810044"/>
<path fill-rule="evenodd" clip-rule="evenodd" d="M39.1769 63.0494C38.9978 63.0494 38.8274 63.0032 38.6656 62.9107C38.5039 62.8125 38.3739 62.6623 38.2757 62.4601C38.1775 62.2579 38.1284 61.998 38.1284 61.6802C38.1284 61.2874 38.2035 60.9176 38.3537 60.571C38.5039 60.2244 38.7003 59.9182 38.9429 59.6525C39.1856 59.3867 39.4513 59.1788 39.7401 59.0286C40.0348 58.8726 40.3236 58.7946 40.6067 58.7946C40.7165 58.7946 40.8407 58.8119 40.9793 58.8466C41.118 58.8755 41.2624 58.9275 41.4126 59.0026C41.5339 58.9852 41.6581 58.9679 41.7852 58.9506C41.9181 58.9332 42.0538 58.913 42.1925 58.8899L42.2185 58.9246C42.1492 59.1672 42.0885 59.3983 42.0365 59.6178C41.9845 59.8316 41.9325 60.0511 41.8805 60.2764L41.4819 61.9922C41.4761 62.0326 41.4646 62.0846 41.4473 62.1482C41.4299 62.2117 41.4213 62.2724 41.4213 62.3301C41.4213 62.3821 41.4328 62.4255 41.4559 62.4601C41.479 62.4948 41.5195 62.5121 41.5772 62.5121C41.6755 62.5121 41.7997 62.4601 41.9499 62.3561C42.1001 62.2521 42.2358 62.125 42.3571 61.9748C42.4322 62.0268 42.4987 62.0846 42.5564 62.1482C42.36 62.4081 42.1492 62.6248 41.9239 62.7981C41.6986 62.9714 41.4444 63.058 41.1613 63.058C40.9475 63.058 40.7945 63.006 40.702 62.9021C40.6096 62.7923 40.5634 62.6565 40.5634 62.4948C40.5634 62.3388 40.5951 62.1597 40.6587 61.9575H40.6154C40.4016 62.3272 40.1705 62.6017 39.9221 62.7807C39.6795 62.9598 39.4311 63.0494 39.1769 63.0494ZM41.1873 59.5485C41.066 59.4387 40.9389 59.3521 40.806 59.2885C40.6731 59.2192 40.5374 59.1845 40.3987 59.1845C40.185 59.1845 39.9943 59.2625 39.8268 59.4185C39.6593 59.5745 39.5177 59.7767 39.4022 60.0251C39.2867 60.2677 39.2 60.5306 39.1422 60.8137C39.0845 61.091 39.0556 61.3567 39.0556 61.6109C39.0556 61.9575 39.1018 62.1944 39.1942 62.3215C39.2867 62.4428 39.3964 62.5034 39.5235 62.5034C39.6737 62.5034 39.8384 62.4312 40.0174 62.2868C40.2023 62.1366 40.3814 61.8997 40.5547 61.5762C40.7338 61.2469 40.8869 60.8137 41.014 60.2764L41.1873 59.5485Z" fill="#810044"/>
<path fill-rule="evenodd" clip-rule="evenodd" d="M50.0511 63.0494C49.872 63.0494 49.7016 63.0032 49.5399 62.9107C49.3781 62.8125 49.2481 62.6623 49.1499 62.4601C49.0517 62.2579 49.0026 61.998 49.0026 61.6802C49.0026 61.2874 49.0777 60.9176 49.2279 60.571C49.3781 60.2244 49.5745 59.9182 49.8172 59.6525C50.0598 59.3867 50.3255 59.1788 50.6144 59.0286C50.909 58.8726 51.1979 58.7946 51.4809 58.7946C51.5907 58.7946 51.7149 58.8119 51.8536 58.8466C51.9922 58.8755 52.1366 58.9275 52.2868 59.0026C52.4081 58.9852 52.5323 58.9679 52.6594 58.9506C52.7923 58.9332 52.9281 58.913 53.0667 58.8899L53.0927 58.9246C53.0234 59.1672 52.9627 59.3983 52.9107 59.6178C52.8588 59.8316 52.8068 60.0511 52.7548 60.2764L52.3562 61.9922C52.3504 62.0326 52.3388 62.0846 52.3215 62.1482C52.3042 62.2117 52.2955 62.2724 52.2955 62.3301C52.2955 62.3821 52.307 62.4255 52.3302 62.4601C52.3533 62.4948 52.3937 62.5121 52.4515 62.5121C52.5497 62.5121 52.6739 62.4601 52.8241 62.3561C52.9743 62.2521 53.1101 62.125 53.2314 61.9748C53.3065 62.0268 53.3729 62.0846 53.4307 62.1482C53.2343 62.4081 53.0234 62.6248 52.7981 62.7981C52.5728 62.9714 52.3186 63.058 52.0355 63.058C51.8218 63.058 51.6687 63.006 51.5763 62.9021C51.4838 62.7923 51.4376 62.6565 51.4376 62.4948C51.4376 62.3388 51.4694 62.1597 51.5329 61.9575H51.4896C51.2758 62.3272 51.0448 62.6017 50.7964 62.7807C50.5537 62.9598 50.3053 63.0494 50.0511 63.0494ZM52.0615 59.5485C51.9402 59.4387 51.8131 59.3521 51.6802 59.2885C51.5474 59.2192 51.4116 59.1845 51.273 59.1845C51.0592 59.1845 50.8686 59.2625 50.701 59.4185C50.5335 59.5745 50.392 59.7767 50.2764 60.0251C50.1609 60.2677 50.0742 60.5306 50.0165 60.8137C49.9587 61.091 49.9298 61.3567 49.9298 61.6109C49.9298 61.9575 49.976 62.1944 50.0684 62.3215C50.1609 62.4428 50.2706 62.5034 50.3977 62.5034C50.5479 62.5034 50.7126 62.4312 50.8917 62.2868C51.0765 62.1366 51.2556 61.8997 51.4289 61.5762C51.608 61.2469 51.7611 60.8137 51.8882 60.2764L52.0615 59.5485Z" fill="#810044"/>
<path fill-rule="evenodd" clip-rule="evenodd" d="M57.129 60.1118C57.2734 59.9327 57.3456 59.7305 57.3456 59.5052C57.3456 59.2856 57.2676 59.1123 57.1116 58.9852C56.9614 58.8581 56.7246 58.7946 56.4011 58.7946C56.0313 58.7946 55.6876 58.8755 55.3699 59.0372C55.0579 59.199 54.7864 59.4156 54.5553 59.6871C54.33 59.9529 54.1538 60.2475 54.0267 60.571C53.8996 60.8945 53.8361 61.2181 53.8361 61.5416C53.8361 62.0037 53.966 62.3735 54.226 62.6508C54.4918 62.9223 54.8528 63.058 55.3092 63.058C55.702 63.058 56.04 62.9569 56.3231 62.7547C56.6061 62.5468 56.8459 62.2752 57.0423 61.9402C57.0019 61.8824 56.9354 61.8275 56.843 61.7755C56.6755 61.9893 56.4819 62.1626 56.2624 62.2955C56.0429 62.4283 55.8089 62.4948 55.5605 62.4948C55.2774 62.4948 55.0723 62.411 54.9453 62.2435C54.8182 62.0702 54.7546 61.8391 54.7546 61.5502C54.7546 61.3943 54.7719 61.2267 54.8066 61.0476C55.1186 61.013 55.4247 60.9552 55.7252 60.8743C56.0256 60.7934 56.2971 60.6895 56.5397 60.5624C56.7881 60.4353 56.9845 60.2851 57.129 60.1118ZM55.6558 60.5537C55.4074 60.6461 55.1474 60.7097 54.8759 60.7443C54.951 60.4786 55.055 60.2244 55.1879 59.9818C55.3208 59.7391 55.471 59.5427 55.6385 59.3925C55.806 59.2365 55.9793 59.1585 56.1584 59.1585C56.2855 59.1585 56.378 59.199 56.4357 59.2799C56.4935 59.355 56.5224 59.4561 56.5224 59.5832C56.5224 59.8142 56.4415 60.0107 56.2797 60.1724C56.118 60.3284 55.91 60.4555 55.6558 60.5537Z" fill="#810044"/>
<path d="M58.8386 63.058C58.3822 63.058 58.0327 62.9772 57.7901 62.8154C57.5474 62.6536 57.4261 62.4832 57.4261 62.3041C57.4261 62.2059 57.4636 62.1135 57.5388 62.0268C57.6139 61.9402 57.7236 61.8969 57.868 61.8969C58.0125 61.8969 58.128 61.9373 58.2147 62.0182C58.3071 62.099 58.3764 62.203 58.4226 62.3301C58.4746 62.4572 58.5093 62.5843 58.5266 62.7114C58.5902 62.7287 58.6508 62.7403 58.7086 62.7461C58.7721 62.7519 58.8328 62.7547 58.8906 62.7547C59.1274 62.7547 59.3267 62.7056 59.4885 62.6074C59.6503 62.5034 59.7311 62.3504 59.7311 62.1482C59.7311 61.9691 59.6618 61.8189 59.5232 61.6975C59.3903 61.5705 59.191 61.4174 58.9252 61.2383C58.7693 61.1285 58.6162 61.0159 58.466 60.9003C58.3215 60.779 58.2031 60.6461 58.1107 60.5017C58.0182 60.3573 57.972 60.1955 57.972 60.0164C57.972 59.8316 58.0269 59.6467 58.1367 59.4618C58.2522 59.2712 58.4313 59.1152 58.6739 58.9939C58.9166 58.8668 59.2256 58.8033 59.6011 58.8033C60.0171 58.8033 60.3291 58.8755 60.537 59.0199C60.745 59.1643 60.849 59.3203 60.849 59.4878C60.849 59.5745 60.8172 59.664 60.7537 59.7565C60.6959 59.8489 60.5919 59.8951 60.4417 59.8951C60.2511 59.8951 60.1038 59.82 59.9998 59.6698C59.9016 59.5138 59.8409 59.3492 59.8178 59.1759C59.6965 59.147 59.5752 59.1325 59.4538 59.1325C59.2228 59.1325 59.0466 59.1874 58.9252 59.2972C58.8039 59.4012 58.7433 59.5369 58.7433 59.7045C58.7433 59.8836 58.8126 60.0395 58.9512 60.1724C59.0957 60.2995 59.3036 60.4555 59.5752 60.6403C59.7311 60.7443 59.8813 60.857 60.0258 60.9783C60.1702 61.0938 60.2886 61.2267 60.381 61.3769C60.4735 61.5213 60.5197 61.6947 60.5197 61.8969C60.5197 62.1395 60.4475 62.3475 60.3031 62.5208C60.1586 62.6941 59.9593 62.827 59.7051 62.9194C59.4509 63.0118 59.1621 63.058 58.8386 63.058Z" fill="#810044"/>
<path d="M62.9909 59.3752H63.9875C64.0106 59.3116 64.0279 59.251 64.0395 59.1932C64.051 59.1297 64.0568 59.0632 64.0568 58.9939H63.0776C63.1411 58.7166 63.1931 58.4913 63.2336 58.318C63.274 58.1389 63.3144 57.9627 63.3549 57.7894L63.3289 57.7547C63.1902 57.7778 63.0458 57.7981 62.8956 57.8154C62.7512 57.8269 62.6096 57.8385 62.471 57.8501C62.4306 58.0407 62.3843 58.2429 62.3324 58.4566C62.2861 58.6646 62.2428 58.8524 62.2024 59.0199L61.5178 59.1239C61.5005 59.1643 61.4889 59.2048 61.4831 59.2452C61.4774 59.2856 61.4745 59.329 61.4745 59.3752H62.1244L61.5871 61.8102C61.5582 61.9431 61.538 62.0557 61.5265 62.1482C61.5149 62.2406 61.5091 62.3186 61.5091 62.3821C61.5091 62.4746 61.5293 62.5757 61.5698 62.6854C61.6102 62.7894 61.6824 62.8789 61.7864 62.954C61.8962 63.0291 62.0435 63.0667 62.2284 63.0667C62.5057 63.0667 62.7743 62.9858 63.0343 62.8241C63.2942 62.6623 63.5253 62.4399 63.7275 62.1568C63.6697 62.0933 63.6033 62.0355 63.5282 61.9835C63.3953 62.151 63.2451 62.2868 63.0776 62.3908C62.9101 62.489 62.7656 62.5381 62.6443 62.5381C62.5403 62.5381 62.4681 62.5121 62.4277 62.4601C62.3872 62.4023 62.367 62.3272 62.367 62.2348C62.367 62.1366 62.393 61.9748 62.445 61.7495L62.9909 59.3752Z" fill="#810044"/>
<path d="M65.3385 61.5676L65.0526 62.954H64.2034L65.2952 57.6074C65.3126 57.5265 65.327 57.4514 65.3385 57.3821C65.3501 57.3128 65.3559 57.2579 65.3559 57.2175C65.3559 57.1077 65.3039 57.0413 65.1999 57.0182C65.1017 56.9893 64.9139 56.9719 64.6366 56.9662C64.6342 56.9492 64.6318 56.9328 64.6294 56.9169C64.626 56.8948 64.6227 56.8737 64.6193 56.8535C64.6193 56.8131 64.6222 56.7726 64.628 56.7322C64.9399 56.7091 65.2432 56.6773 65.5379 56.6369C65.8383 56.5907 66.0953 56.5242 66.3091 56.4376L66.4217 56.4982C66.3524 56.7466 66.2889 57.0008 66.2311 57.2608C66.1733 57.515 66.1156 57.7807 66.0578 58.058L65.7805 59.3752L65.6418 59.9644H65.6852C65.922 59.5832 66.1907 59.2943 66.4911 59.0979C66.7915 58.8957 67.0919 58.7946 67.3923 58.7946C67.6638 58.7946 67.8718 58.8697 68.0162 59.0199C68.1664 59.1701 68.2415 59.355 68.2415 59.5745C68.2415 59.6958 68.2184 59.8576 68.1722 60.0598C68.1317 60.262 68.0797 60.4815 68.0162 60.7183C67.9526 60.9494 67.8891 61.1776 67.8256 61.4029C67.762 61.6224 67.7071 61.8189 67.6609 61.9922C67.6205 62.1597 67.6003 62.2781 67.6003 62.3475C67.6003 62.3879 67.6118 62.4255 67.6349 62.4601C67.658 62.4948 67.6985 62.5121 67.7562 62.5121C67.8544 62.5121 67.9786 62.4601 68.1288 62.3561C68.279 62.2521 68.4148 62.125 68.5361 61.9748C68.6112 62.0268 68.6777 62.0846 68.7354 62.1482C68.539 62.4081 68.3253 62.6248 68.0942 62.7981C67.8689 62.9714 67.6205 63.058 67.349 63.058C67.1352 63.058 66.9763 63.006 66.8723 62.9021C66.7741 62.7923 66.725 62.6565 66.725 62.4948C66.725 62.3792 66.7453 62.2261 66.7857 62.0355C66.8319 61.8449 66.8868 61.6369 66.9503 61.4116C67.0139 61.1863 67.0745 60.961 67.1323 60.7357C67.1959 60.5104 67.2479 60.3053 67.2883 60.1204C67.3345 59.9356 67.3576 59.7911 67.3576 59.6871C67.3576 59.5716 67.3287 59.4792 67.271 59.4098C67.219 59.3347 67.1352 59.2972 67.0197 59.2972C66.8637 59.2972 66.6759 59.3752 66.4564 59.5312C66.2369 59.6814 66.0231 59.924 65.8152 60.2591C65.613 60.5884 65.4541 61.0245 65.3385 61.5676Z" fill="#810044"/>
<path fill-rule="evenodd" clip-rule="evenodd" d="M72.4544 60.1118C72.5989 59.9327 72.6711 59.7305 72.6711 59.5052C72.6711 59.2856 72.5931 59.1123 72.4371 58.9852C72.2869 58.8581 72.0501 58.7946 71.7265 58.7946C71.3568 58.7946 71.0131 58.8755 70.6953 59.0372C70.3834 59.199 70.1119 59.4156 69.8808 59.6871C69.6555 59.9529 69.4793 60.2475 69.3522 60.571C69.2251 60.8945 69.1615 61.2181 69.1615 61.5416C69.1615 62.0037 69.2915 62.3735 69.5515 62.6508C69.8172 62.9223 70.1783 63.058 70.6347 63.058C71.0275 63.058 71.3655 62.9569 71.6485 62.7547C71.9316 62.5468 72.1714 62.2752 72.3678 61.9402C72.3273 61.8824 72.2609 61.8275 72.1685 61.7755C72.0009 61.9893 71.8074 62.1626 71.5879 62.2955C71.3684 62.4283 71.1344 62.4948 70.886 62.4948C70.6029 62.4948 70.3978 62.411 70.2707 62.2435C70.1436 62.0702 70.0801 61.8391 70.0801 61.5502C70.0801 61.3943 70.0974 61.2267 70.1321 61.0476C70.444 61.013 70.7502 60.9552 71.0506 60.8743C71.351 60.7934 71.6225 60.6895 71.8652 60.5624C72.1136 60.4353 72.31 60.2851 72.4544 60.1118ZM70.9813 60.5537C70.7329 60.6461 70.4729 60.7097 70.2014 60.7443C70.2765 60.4786 70.3805 60.2244 70.5134 59.9818C70.6462 59.7391 70.7964 59.5427 70.964 59.3925C71.1315 59.2365 71.3048 59.1585 71.4839 59.1585C71.611 59.1585 71.7034 59.199 71.7612 59.2799C71.819 59.355 71.8479 59.4561 71.8479 59.5832C71.8479 59.8142 71.767 60.0107 71.6052 60.1724C71.4435 60.3284 71.2355 60.4555 70.9813 60.5537Z" fill="#810044"/>
<path d="M75.7672 59.3752H74.7706L74.2247 61.7495C74.1727 61.9748 74.1467 62.1366 74.1467 62.2348C74.1467 62.3272 74.167 62.4023 74.2074 62.4601C74.2478 62.5121 74.32 62.5381 74.424 62.5381C74.5453 62.5381 74.6898 62.489 74.8573 62.3908C75.0248 62.2868 75.175 62.151 75.3079 61.9835C75.383 62.0355 75.4494 62.0933 75.5072 62.1568C75.305 62.4399 75.0739 62.6623 74.814 62.8241C74.554 62.9858 74.2854 63.0667 74.0081 63.0667C73.8232 63.0667 73.6759 63.0291 73.5661 62.954C73.4621 62.8789 73.3899 62.7894 73.3495 62.6854C73.3091 62.5757 73.2888 62.4746 73.2888 62.3821C73.2888 62.3186 73.2946 62.2406 73.3062 62.1482C73.3177 62.0557 73.3379 61.9431 73.3668 61.8102L73.9041 59.3752H73.2542C73.2542 59.329 73.2571 59.2856 73.2628 59.2452C73.2686 59.2048 73.2802 59.1643 73.2975 59.1239L73.9821 59.0199C74.0225 58.8524 74.0658 58.6646 74.1121 58.4566C74.1641 58.2429 74.2103 58.0407 74.2507 57.8501C74.3894 57.8385 74.5309 57.8269 74.6753 57.8154C74.8255 57.7981 74.9699 57.7778 75.1086 57.7547L75.1346 57.7894C75.0942 57.9627 75.0537 58.1389 75.0133 58.318C74.9728 58.4913 74.9208 58.7166 74.8573 58.9939H75.8365C75.8365 59.0632 75.8307 59.1297 75.8192 59.1932C75.8076 59.251 75.7903 59.3116 75.7672 59.3752Z" fill="#810044"/>
<path d="M78.2015 62.1482C78.1437 62.0846 78.0772 62.0268 78.0021 61.9748C77.8808 62.125 77.7451 62.2521 77.5949 62.3561C77.4447 62.4601 77.3205 62.5121 77.2222 62.5121C77.1645 62.5121 77.124 62.4948 77.1009 62.4601C77.0778 62.4255 77.0663 62.3821 77.0663 62.3301C77.0663 62.2724 77.0749 62.2146 77.0923 62.1568C77.1096 62.0933 77.1212 62.0413 77.1269 62.0008L77.6815 59.6958C77.6931 59.6323 77.7017 59.5716 77.7075 59.5138C77.7191 59.4503 77.7248 59.3925 77.7248 59.3405C77.7248 59.1903 77.6815 59.0661 77.5949 58.9679C77.514 58.8639 77.3753 58.8119 77.1789 58.8119C76.9652 58.8119 76.7341 58.8812 76.4857 59.0199C76.243 59.1528 76.0062 59.355 75.7751 59.6265C75.804 59.6611 75.8329 59.6929 75.8618 59.7218C75.8964 59.7507 75.934 59.7796 75.9744 59.8085C76.1015 59.6756 76.2286 59.5658 76.3557 59.4792C76.4886 59.3867 76.5954 59.3405 76.6763 59.3405C76.7803 59.3405 76.8323 59.4098 76.8323 59.5485C76.8323 59.6005 76.8121 59.7102 76.7716 59.8778L76.2517 62.0442C76.2344 62.1193 76.2199 62.1944 76.2084 62.2695C76.1968 62.3388 76.191 62.4052 76.191 62.4688C76.191 62.6479 76.2402 62.7923 76.3384 62.9021C76.4366 63.006 76.5925 63.058 76.8063 63.058C77.0836 63.058 77.3349 62.9714 77.5602 62.7981C77.7913 62.6248 78.005 62.4081 78.2015 62.1482Z" fill="#810044"/>
<path d="M77.2222 57.6507C77.3205 57.7547 77.4475 57.8067 77.6035 57.8067C77.7826 57.8067 77.9299 57.7432 78.0455 57.6161C78.161 57.489 78.2188 57.3388 78.2188 57.1655C78.2188 57.0153 78.1726 56.8911 78.0801 56.7929C77.9877 56.6889 77.8635 56.6369 77.7075 56.6369C77.5342 56.6369 77.384 56.7004 77.2569 56.8275C77.1356 56.9488 77.0749 57.0961 77.0749 57.2695C77.0749 57.4197 77.124 57.5468 77.2222 57.6507Z" fill="#810044"/>
<path d="M80.0014 63.058C79.5565 63.058 79.207 62.9194 78.9528 62.6421C78.7044 62.3648 78.5802 61.9922 78.5802 61.5242C78.5802 61.1487 78.6553 60.7963 78.8055 60.467C78.9557 60.1378 79.155 59.8489 79.4035 59.6005C79.6519 59.3521 79.9263 59.1585 80.2267 59.0199C80.5271 58.8755 80.8246 58.8033 81.1192 58.8033C81.3908 58.8033 81.6161 58.861 81.7951 58.9766C81.9742 59.0921 82.0638 59.2394 82.0638 59.4185C82.0638 59.5398 82.0233 59.6409 81.9425 59.7218C81.8616 59.8027 81.7547 59.8431 81.6218 59.8431C81.4947 59.8431 81.3648 59.794 81.2319 59.6958C81.099 59.5918 81.0181 59.4127 80.9893 59.1585C80.7755 59.1643 80.5762 59.2452 80.3913 59.4012C80.2122 59.5572 80.0563 59.7565 79.9234 59.9991C79.7905 60.2417 79.6865 60.4988 79.6114 60.7703C79.5363 61.0419 79.4988 61.2989 79.4988 61.5416C79.4988 61.79 79.5537 62.0066 79.6634 62.1915C79.7732 62.3763 79.9783 62.4688 80.2787 62.4688C80.5271 62.4688 80.7553 62.4023 80.9633 62.2695C81.177 62.1366 81.3619 61.9604 81.5178 61.7409C81.6103 61.7871 81.6796 61.842 81.7258 61.9055C81.6161 62.1019 81.4803 62.2897 81.3185 62.4688C81.1626 62.6421 80.9748 62.7836 80.7553 62.8934C80.5415 63.0032 80.2902 63.058 80.0014 63.058Z" fill="#810044"/>
<path d="M82.3734 62.8154C82.6161 62.9772 82.9656 63.058 83.422 63.058C83.7455 63.058 84.0343 63.0118 84.2885 62.9194C84.5427 62.827 84.742 62.6941 84.8864 62.5208C85.0309 62.3475 85.1031 62.1395 85.1031 61.8969C85.1031 61.6947 85.0569 61.5213 84.9644 61.3769C84.872 61.2267 84.7536 61.0938 84.6091 60.9783C84.4647 60.857 84.3145 60.7443 84.1585 60.6403C83.887 60.4555 83.679 60.2995 83.5346 60.1724C83.396 60.0395 83.3266 59.8836 83.3266 59.7045C83.3266 59.5369 83.3873 59.4012 83.5086 59.2972C83.6299 59.1874 83.8061 59.1325 84.0372 59.1325C84.1585 59.1325 84.2799 59.147 84.4012 59.1759C84.4243 59.3492 84.4849 59.5138 84.5831 59.6698C84.6871 59.82 84.8344 59.8951 85.0251 59.8951C85.1753 59.8951 85.2793 59.8489 85.337 59.7565C85.4006 59.664 85.4324 59.5745 85.4324 59.4878C85.4324 59.3203 85.3284 59.1643 85.1204 59.0199C84.9124 58.8755 84.6005 58.8033 84.1845 58.8033C83.809 58.8033 83.5 58.8668 83.2573 58.9939C83.0147 59.1152 82.8356 59.2712 82.7201 59.4618C82.6103 59.6467 82.5554 59.8316 82.5554 60.0164C82.5554 60.1955 82.6016 60.3573 82.6941 60.5017C82.7865 60.6461 82.9049 60.779 83.0493 60.9003C83.1996 61.0159 83.3526 61.1285 83.5086 61.2383C83.7744 61.4174 83.9737 61.5705 84.1065 61.6975C84.2452 61.8189 84.3145 61.9691 84.3145 62.1482C84.3145 62.3504 84.2336 62.5034 84.0719 62.6074C83.9101 62.7056 83.7108 62.7547 83.474 62.7547C83.4162 62.7547 83.3555 62.7519 83.292 62.7461C83.2342 62.7403 83.1736 62.7287 83.11 62.7114C83.0927 62.5843 83.058 62.4572 83.006 62.3301C82.9598 62.203 82.8905 62.099 82.798 62.0182C82.7114 61.9373 82.5959 61.8969 82.4514 61.8969C82.307 61.8969 82.1972 61.9402 82.1221 62.0268C82.047 62.1135 82.0095 62.2059 82.0095 62.3041C82.0095 62.4832 82.1308 62.6536 82.3734 62.8154Z" fill="#810044"/>
</svg>
