<svg width="16" height="16" viewBox="0 0 16 16" fill="none" xmlns="http://www.w3.org/2000/svg">
<path fill-rule="evenodd" clip-rule="evenodd" d="M8 14.6667C11.6819 14.6667 14.6667 11.6819 14.6667 8C14.6667 4.3181 11.6819 1.33333 8 1.33333C4.3181 1.33333 1.33333 4.3181 1.33333 8C1.33333 11.6819 4.3181 14.6667 8 14.6667ZM9.66832 5.15867C9.66008 4.7748 9.65726 4.75671 9.59817 4.70892C9.54213 4.6636 9.49198 4.65935 9.03749 4.66159C8.45663 4.66443 8.25353 4.69663 7.98709 4.82804C7.65705 4.99084 7.42453 5.27233 7.29745 5.66295C7.24358 5.82851 7.23708 5.9066 7.22746 6.5038L7.21682 7.16215H6.82677C6.44741 7.16215 6.43497 7.16389 6.37272 7.22615C6.30907 7.2898 6.3087 7.29301 6.3087 7.80698C6.3087 8.23257 6.31587 8.33405 6.34931 8.38176C6.38837 8.43753 6.40558 8.43972 6.80567 8.43972H7.22144V9.85548C7.22144 10.9219 7.22915 11.279 7.25273 11.3025C7.27505 11.3248 7.43843 11.3338 7.82241 11.3338C8.31088 11.3338 8.36478 11.3294 8.40395 11.2861C8.44299 11.243 8.44711 11.1046 8.44711 9.83908V8.43972H8.96682C9.40428 8.43972 9.493 8.43325 9.52745 8.39879C9.58012 8.34612 9.58315 8.33053 9.64754 7.78237C9.70457 7.2966 9.70003 7.24467 9.59567 7.18882C9.5662 7.17304 9.32041 7.16215 8.99454 7.16215H8.44327L8.4517 6.63417C8.45965 6.13717 8.46364 6.10056 8.51981 6.01027C8.61828 5.85193 8.7474 5.80729 9.15435 5.79097C9.34625 5.78328 9.52925 5.77173 9.56098 5.76534C9.65333 5.74672 9.67797 5.60742 9.66832 5.15867Z" fill="#F95B5B"/>
</svg>
