<svg width="16" height="16" viewBox="0 0 16 16" fill="none" xmlns="http://www.w3.org/2000/svg">
<path d="M7.04085 7.57055C7.17379 7.28701 7.32786 7.14105 7.62612 7.01614C7.75752 6.96112 7.81232 6.95335 8.02625 6.95951C8.24216 6.96569 8.29667 6.97726 8.44897 7.04935C8.67141 7.15466 8.8426 7.32573 8.94799 7.548C9.02464 7.70976 9.0308 7.74302 9.0308 7.99648C9.0308 8.24994 9.02464 8.2832 8.94799 8.44496C8.8426 8.66723 8.67141 8.8383 8.44897 8.94361C8.28709 9.02021 8.2538 9.02636 8.00016 9.02636C7.74808 9.02636 7.71265 9.01995 7.55659 8.94587C7.33272 8.83965 7.15654 8.66476 7.05264 8.44559C6.97562 8.28313 6.96951 8.25014 6.96951 7.99648C6.96951 7.7527 6.97731 7.70605 7.04085 7.57055Z" fill="#F95B5B"/>
<path fill-rule="evenodd" clip-rule="evenodd" d="M5.72744 5.72545C5.91003 5.54296 6.08655 5.43765 6.31107 5.37724C6.52192 5.32048 9.46412 5.32025 9.68201 5.37696C9.9193 5.43872 10.1247 5.56202 10.2972 5.74631C10.4708 5.93171 10.5646 6.09701 10.6226 6.31981C10.6803 6.54111 10.6803 9.45185 10.6226 9.67315C10.5646 9.89595 10.4708 10.0612 10.2972 10.2467C10.1247 10.4309 9.9193 10.5542 9.68201 10.616C9.45686 10.6746 6.54687 10.6755 6.32224 10.617C6.09928 10.559 5.93386 10.4653 5.74831 10.2918C5.56389 10.1194 5.4405 9.9142 5.37869 9.67709C5.32006 9.45211 5.31915 6.54427 5.37767 6.31981C5.43883 6.08518 5.54072 5.912 5.72744 5.72545ZM10.1547 6.18537C10.1288 6.04779 9.98299 5.89727 9.84084 5.86152C9.77225 5.84426 9.74557 5.83541 9.71939 5.83672C9.69372 5.83801 9.66855 5.84907 9.60483 5.87159C9.36283 5.95711 9.24987 6.20931 9.35114 6.43807C9.43599 6.62971 9.62101 6.7225 9.83745 6.68193C10.0337 6.64514 10.1939 6.3944 10.1547 6.18537ZM9.53457 7.21612C9.31714 6.77554 8.85557 6.41622 8.37683 6.31488C7.78077 6.18871 7.21444 6.35555 6.78621 6.78344C6.44427 7.12512 6.27807 7.5219 6.27807 7.99648C6.27807 8.47158 6.44448 8.86854 6.78637 9.20887C7.13068 9.55163 7.52674 9.71771 7.99781 9.7169C8.46588 9.7161 8.87662 9.54727 9.2004 9.22259C9.53824 8.88382 9.69318 8.54213 9.71492 8.08781C9.73091 7.754 9.68102 7.5129 9.53457 7.21612Z" fill="#F95B5B"/>
<path fill-rule="evenodd" clip-rule="evenodd" d="M8 14.6667C11.6819 14.6667 14.6667 11.6819 14.6667 8C14.6667 4.3181 11.6819 1.33333 8 1.33333C4.3181 1.33333 1.33333 4.3181 1.33333 8C1.33333 11.6819 4.3181 14.6667 8 14.6667ZM11.2901 6.19747C11.1049 5.4752 10.5833 4.93768 9.85579 4.71924C9.72595 4.68026 9.52283 4.67458 8.07843 4.66957C7.18151 4.66647 6.42418 4.66882 6.39548 4.67481C6.36678 4.68081 6.27872 4.69859 6.19979 4.71434C5.63667 4.82656 5.07727 5.28914 4.83052 5.84669C4.7983 5.91949 4.77268 5.97563 4.75231 6.03361C4.67095 6.26521 4.67339 6.52625 4.67339 7.99648C4.67339 9.51541 4.67777 9.69357 4.71874 9.8372C4.92641 10.5653 5.47106 11.0974 6.19982 11.284C6.41077 11.3381 9.58954 11.3381 9.8005 11.284C10.5452 11.0933 11.0993 10.5396 11.2901 9.79549C11.3442 9.58469 11.3442 6.40827 11.2901 6.19747Z" fill="#F95B5B"/>
</svg>
