<svg width="16" height="16" viewBox="0 0 16 16" fill="none" xmlns="http://www.w3.org/2000/svg">
<path fill-rule="evenodd" clip-rule="evenodd" d="M7.36644 1.34952C5.28006 1.56646 3.45155 2.70181 2.34077 4.47007C0.765458 6.97785 1.06286 10.3074 3.05596 12.4766C4.16371 13.6822 5.53558 14.3993 7.18361 14.634C7.4934 14.6781 8.51793 14.6774 8.83961 14.6328C10.4627 14.408 11.8334 13.6926 12.9393 12.4931C13.8485 11.5069 14.4319 10.2437 14.6339 8.8235C14.6776 8.51655 14.6776 7.48661 14.6339 7.17965C14.4797 6.09537 14.1365 5.17358 13.5663 4.31208C13.3239 3.94568 13.0817 3.65008 12.7443 3.30865C11.7018 2.25364 10.415 1.60435 8.93088 1.38449C8.61098 1.33708 7.68507 1.31641 7.36644 1.34952ZM8.6049 3.81274C9.22127 3.94245 9.75891 4.23129 10.192 4.66545C10.7731 5.24792 11.0887 5.99663 11.0924 6.80131C11.0936 7.06221 11.0817 7.17446 11.033 7.3623C10.7755 8.35498 9.90362 9.8077 8.42829 11.7024C8.20853 11.9847 8.01873 12.2156 8.00652 12.2156C7.96094 12.2156 7.07157 11.0483 6.55526 10.3108C5.55154 8.87707 4.9782 7.71284 4.91316 6.97626C4.89334 6.75199 4.93277 6.37028 5.00488 6.08819C5.31795 4.86355 6.34535 3.95411 7.6185 3.77464C7.84486 3.74273 8.36824 3.76295 8.6049 3.81274ZM7.51559 5.00129C6.9103 5.15996 6.38802 5.64425 6.18974 6.23061C6.01533 6.74638 6.04918 7.22615 6.29547 7.7286C6.79879 8.75545 8.10948 9.09996 9.07346 8.45878C9.69353 8.04633 10.0261 7.27936 9.89974 6.55309C9.76632 5.78622 9.22039 5.18843 8.48061 4.99913C8.21622 4.93147 7.77815 4.93246 7.51559 5.00129Z" fill="#F95B5B"/>
</svg>
