<svg width="16" height="16" viewBox="0 0 16 16" fill="none" xmlns="http://www.w3.org/2000/svg">
<path d="M5.89503 8.75429C5.91456 8.72691 6.31196 8.29965 6.77811 7.80487C7.24426 7.31006 7.63965 6.90436 7.65676 6.90332C7.67389 6.90228 7.70323 6.92329 7.72196 6.95004C7.74071 6.97679 7.92907 7.17672 8.14054 7.39435L8.52501 7.79003L9.27493 7.37555C9.68739 7.14757 10.0542 6.94579 10.09 6.9271C10.1259 6.90843 9.97839 7.07981 9.76226 7.30794C9.54612 7.53606 9.1428 7.96324 8.866 8.25721C8.58921 8.55118 8.35427 8.79499 8.34392 8.79901C8.32932 8.80466 7.87339 8.33386 7.53263 7.96123C7.4901 7.91469 7.45865 7.92924 6.67396 8.3585C6.22599 8.60356 5.87547 8.78167 5.89503 8.75429Z" fill="#F95B5B"/>
<path fill-rule="evenodd" clip-rule="evenodd" d="M8 14.6667C11.6819 14.6667 14.6667 11.6819 14.6667 8C14.6667 4.3181 11.6819 1.33333 8 1.33333C4.3181 1.33333 1.33333 4.3181 1.33333 8C1.33333 11.6819 4.3181 14.6667 8 14.6667ZM9.96037 5.24756C9.52547 4.96224 9.03676 4.7767 8.51708 4.69955C8.26949 4.66279 7.82264 4.65155 7.62565 4.67711C6.76562 4.78867 6.07637 5.12394 5.51032 5.70605C4.62904 6.61237 4.42198 7.91782 4.97982 9.05071C5.15504 9.40656 5.43206 9.76144 5.72813 10.0093L5.91753 10.1678V11.3293L7.05193 10.7117L7.28663 10.7666C7.60805 10.8419 8.35187 10.8479 8.68181 10.7778C10.3167 10.4306 11.4174 9.10786 11.3327 7.59235C11.2996 7.0008 11.0998 6.46156 10.7327 5.97327C10.5666 5.75241 10.1888 5.3974 9.96037 5.24756Z" fill="#F95B5B"/>
</svg>
