<svg width="16" height="16" viewBox="0 0 16 16" fill="none" xmlns="http://www.w3.org/2000/svg">
  <path id="messenger icon" fill="#FFF" fill-rule="evenodd" clip-rule="evenodd" d="M9.23199 0.0870489C10.4792 0.272196 11.652 0.717449 12.6957 1.40216C13.2439 1.76176 14.1505 2.61372 14.5491 3.14376C15.4301 4.31558 15.9097 5.60967 15.989 7.02928C16.1923 10.6663 13.5507 13.8405 9.62733 14.6738C8.83553 14.842 7.05047 14.8277 6.27913 14.647L5.71588 14.5151L4.3547 15.2562L2.99352 15.9974V14.6037V13.21L2.53897 12.8295C1.82847 12.2347 1.16365 11.3831 0.74315 10.5291C-0.595567 7.81035 -0.0986572 4.67749 2.01628 2.50247C3.37471 1.10551 5.02878 0.300915 7.09271 0.0331748C7.56547 -0.0281446 8.63783 -0.0011759 9.23199 0.0870489ZM5.05876 7.53929C3.94009 8.7267 2.98638 9.75205 2.93951 9.81774C2.89257 9.88344 3.73375 9.45602 4.8088 8.86792C6.69193 7.83775 6.76741 7.80284 6.86948 7.91453C7.68725 8.80879 8.78139 9.93863 8.81644 9.92505C8.84128 9.91542 9.4051 9.33032 10.0694 8.62483C10.7336 7.91935 11.7015 6.89419 12.2202 6.34675C12.7389 5.79926 13.0929 5.38798 13.0068 5.43278C12.9208 5.47765 12.0405 5.96188 11.0507 6.509L9.25102 7.50369L8.32835 6.55411C7.82087 6.03184 7.36883 5.55204 7.32383 5.48785C7.2789 5.42365 7.20849 5.37322 7.16737 5.37572C7.12632 5.37822 6.17743 6.35182 5.05876 7.53929Z"/>
</svg>
