<svg width="16" height="16" viewBox="0 0 16 16" fill="none" xmlns="http://www.w3.org/2000/svg">
<path fill-rule="evenodd" clip-rule="evenodd" d="M8 14.6667C11.6819 14.6667 14.6667 11.6819 14.6667 8C14.6667 4.3181 11.6819 1.33333 8 1.33333C4.3181 1.33333 1.33334 4.3181 1.33334 8C1.33334 11.6819 4.3181 14.6667 8 14.6667ZM6.61981 4.83732C6.59716 4.4794 6.5774 4.42658 6.42304 4.3113C6.35399 4.25972 6.3143 4.25726 5.4591 4.25147C4.48134 4.24489 4.46602 4.24688 4.33859 4.39832C4.24488 4.50969 4.23053 4.61062 4.25135 5.01183C4.3692 7.28223 5.55381 9.34303 7.46386 10.6005C8.54163 11.31 9.88558 11.7328 11.0954 11.743C11.5289 11.7466 11.563 11.7365 11.6898 11.5666C11.7418 11.497 11.7436 11.4631 11.7436 10.5721C11.7436 9.68107 11.7418 9.64712 11.6898 9.57753C11.5746 9.42319 11.5217 9.40341 11.1637 9.38076C10.5225 9.34019 10.0123 9.22506 9.49677 9.00463C9.1926 8.87455 9.0533 8.85524 8.91921 8.92457C8.80551 8.98336 8.76778 9.03876 8.60058 9.39248C8.51438 9.57484 8.43683 9.72405 8.42827 9.72405C8.39531 9.72405 7.88526 9.37497 7.6927 9.22063C7.22049 8.84214 6.81631 8.399 6.47051 7.88063C6.3638 7.72065 6.27649 7.58199 6.27649 7.5725C6.27649 7.563 6.413 7.49108 6.57985 7.4127C6.9381 7.2444 7.02004 7.18989 7.07521 7.08319C7.14674 6.94493 7.12866 6.81201 6.99645 6.50411C6.77589 5.99038 6.66044 5.4795 6.61981 4.83732Z" fill="#F95B5B"/>
</svg>
